<svg width="118" height="118" viewBox="0 0 118 118" fill="none" xmlns="http://www.w3.org/2000/svg">
<path fill-rule="evenodd" clip-rule="evenodd" d="M47.1628 15.7347C45.9655 16.755 45.3668 17.2653 44.7274 17.6938C43.2617 18.6762 41.6157 19.358 39.8847 19.6997C39.1295 19.8488 38.3454 19.9114 36.7772 20.0365C32.8371 20.351 30.867 20.5082 29.2234 21.0887C25.4218 22.4315 22.4316 25.4217 21.0889 29.2232C20.5083 30.8668 20.3511 32.8369 20.0367 36.7771C19.9115 38.3452 19.849 39.1293 19.6999 39.8845C19.3581 41.6155 18.6763 43.2616 17.694 44.7272C17.2654 45.3666 16.7552 45.9653 15.7348 47.1626C13.1711 50.1711 11.8892 51.6752 11.1375 53.248C9.39883 56.8858 9.39883 61.1142 11.1375 64.752C11.8892 66.3249 13.1711 67.8289 15.7348 70.8374C16.7551 72.0346 17.2654 72.6334 17.694 73.2726C18.6763 74.7382 19.3581 76.3844 19.6999 78.1155C19.849 78.8707 19.9115 79.6549 20.0367 81.2228C20.3511 85.1631 20.5083 87.1332 21.0889 88.7768C22.4316 92.5784 25.4218 95.5687 29.2234 96.9114C30.867 97.4916 32.8371 97.6489 36.7772 97.9636C38.3454 98.0885 39.1295 98.1514 39.8847 98.3004C41.6157 98.6421 43.2617 99.324 44.7274 100.306C45.3668 100.735 45.9654 101.245 47.1628 102.265C50.1713 104.829 51.6753 106.111 53.2482 106.863C56.886 108.601 61.1143 108.601 64.7522 106.863C66.325 106.111 67.829 104.829 70.8375 102.265C72.0348 101.245 72.6336 100.735 73.2728 100.306C74.7384 99.324 76.3845 98.6421 78.1157 98.3004C78.8709 98.1514 79.6551 98.0885 81.223 97.9636C85.1632 97.6489 87.1333 97.4916 88.777 96.9114C92.5785 95.5687 95.5689 92.5784 96.9116 88.7768C97.4918 87.1332 97.6491 85.1631 97.9638 81.2228C98.0887 79.6549 98.1516 78.8707 98.3006 78.1155C98.6423 76.3844 99.3242 74.7382 100.307 73.2726C100.735 72.6334 101.245 72.0346 102.265 70.8374C104.829 67.8289 106.111 66.3249 106.863 64.752C108.601 61.1142 108.601 56.8858 106.863 53.248C106.111 51.6752 104.829 50.1711 102.265 47.1626C101.245 45.9653 100.735 45.3666 100.307 44.7272C99.3242 43.2616 98.6423 41.6155 98.3006 39.8845C98.1516 39.1293 98.0887 38.3452 97.9638 36.7771C97.6491 32.8369 97.4918 30.8668 96.9116 29.2232C95.5689 25.4217 92.5785 22.4315 88.777 21.0887C87.1333 20.5082 85.1632 20.351 81.223 20.0365C79.6551 19.9114 78.8709 19.8488 78.1157 19.6997C76.3845 19.358 74.7384 18.6762 73.2728 17.6938C72.6336 17.2653 72.0348 16.7551 70.8375 15.7347C67.829 13.1709 66.325 11.889 64.7522 11.1373C61.1143 9.39865 56.886 9.39865 53.2482 11.1373C51.6753 11.889 50.1713 13.1709 47.1628 15.7347ZM80.5032 48.4938C82.0657 46.9311 82.0657 44.3975 80.5032 42.8348C78.9407 41.2721 76.4066 41.2721 74.8441 42.8348L50.9973 66.6818L43.156 58.8407C41.5934 57.2782 39.0597 57.2782 37.4971 58.8407C35.9344 60.4032 35.9344 62.9368 37.4971 64.4998L48.1677 75.1704C49.7303 76.7329 52.2638 76.7329 53.8269 75.1704L80.5032 48.4938Z" fill="#30D158"/>
</svg>
