<svg width="512" height="512" viewBox="0 0 512 512" fill="none" xmlns="http://www.w3.org/2000/svg">
<path d="M385.298 0H328.835C327.004 9.037 319.019 15.83 309.438 15.83C299.864 15.83 291.879 9.036 290.041 0H221.953C220.114 9.037 212.137 15.83 202.556 15.83C192.982 15.83 184.99 9.036 183.159 0H126.696C101.909 0 81.814 20.095 81.814 44.882V403.677C81.814 415.574 86.542 427 94.961 435.419L158.395 498.853C166.814 507.273 178.24 512 190.145 512H385.299C410.086 512 430.189 491.905 430.189 467.118V44.882C430.187 20.095 410.084 0 385.298 0ZM287.585 63.779H328.21V150.603C319.129 138.411 304.636 130.47 288.247 130.47H287.585V63.779ZM237.129 63.779H277.746V130.47H266.548L265.335 133.639C264.739 135.22 263.651 136.603 262.276 137.565C260.894 138.528 259.247 139.087 257.431 139.087C255.6 139.087 253.96 138.528 252.578 137.565C251.202 136.602 250.122 135.22 249.511 133.639L248.305 130.47H237.129V63.779ZM186.665 63.779H227.283V130.47H226.6C210.239 130.47 195.754 138.397 186.666 150.573V63.779H186.665ZM186.665 178.934C187.025 168.434 191.371 158.986 198.312 152.03C205.577 144.78 215.54 140.324 226.599 140.324H241.944C243.238 142.398 244.915 144.222 246.922 145.626C249.885 147.715 253.532 148.95 257.43 148.943C261.32 148.95 264.967 147.715 267.937 145.626C269.937 144.222 271.606 142.398 272.907 140.324H288.246C299.312 140.324 309.282 144.78 316.54 152.03C323.584 159.089 327.966 168.721 328.209 179.42V297.633H287.584V225.53V225.243V220.324H272.738C271.422 218.309 269.752 216.538 267.76 215.177C264.834 213.162 261.238 211.971 257.429 211.978C253.605 211.971 250.025 213.162 247.083 215.177C245.09 216.537 243.428 218.309 242.112 220.324H226.6C215.541 220.324 205.578 215.846 198.313 208.604C191.371 201.655 187.026 192.2 186.666 181.699V178.934H186.665ZM277.746 230.169V297.633H237.129V230.169H248.327L249.577 227.111C250.202 225.567 251.283 224.229 252.65 223.302C254.018 222.376 255.636 221.832 257.43 221.832C259.216 221.832 260.834 222.376 262.194 223.302C263.569 224.229 264.643 225.567 265.275 227.111L266.533 230.169H277.746ZM140.496 99.478C140.503 89.632 144.489 80.742 150.974 74.257C157.459 67.779 166.335 63.787 176.195 63.779H176.82V175.779H140.497L140.496 99.478ZM140.496 185.632H176.819V297.632H176.194C166.334 297.632 157.458 293.639 150.973 287.168C144.488 280.675 140.503 271.778 140.495 261.933V185.632H140.496ZM178.29 410.029C164.857 410.029 151.806 404.713 145.092 398.25C144.584 397.743 144.334 396.86 144.967 396.095L154.592 385.073C155.1 384.441 155.864 384.441 156.496 384.948C162.194 389.506 169.922 393.823 179.047 393.823C188.04 393.823 193.106 389.631 193.106 383.551C193.106 378.485 190.069 375.324 179.804 373.926L175.238 373.294C157.76 370.882 148.003 362.647 148.003 347.448C148.003 331.61 159.914 321.095 178.539 321.095C189.936 321.095 200.584 324.514 207.805 330.087C208.562 330.594 208.687 331.102 208.055 331.984L200.334 343.521C199.819 344.153 199.186 344.278 198.554 343.896C191.973 339.588 185.635 337.315 178.539 337.315C170.937 337.315 167.01 341.234 167.01 346.683C167.01 351.632 170.554 354.793 180.436 356.183L184.995 356.822C202.737 359.227 212.112 367.337 212.112 382.925C212.114 398.508 200.585 410.029 178.29 410.029ZM227.283 297.632H186.665V210.066C195.754 222.243 210.239 230.162 226.599 230.169H227.283V297.632ZM250.871 407.375C250.871 408.132 250.364 408.64 249.599 408.64H233.519C232.754 408.64 232.247 408.132 232.247 407.375V323.757C232.247 322.993 232.753 322.485 233.519 322.485H249.599C250.364 322.485 250.871 322.992 250.871 323.757V407.375ZM355.136 407.375C355.136 408.132 354.629 408.64 353.864 408.64H339.548C338.79 408.64 338.29 408.132 338.29 407.375V358.853H337.783L321.813 395.213C321.305 396.352 320.548 396.86 319.408 396.86H310.666C309.526 396.86 308.762 396.352 308.262 395.213L292.291 358.853H291.791V407.375C291.791 408.132 291.283 408.64 290.526 408.64H276.202C275.445 408.64 274.938 408.132 274.938 407.375V323.757C274.938 322.993 275.446 322.485 276.202 322.485H291.283C292.291 322.485 292.93 322.874 293.312 323.757L315.099 372.911H315.599L337.018 323.757C337.393 322.875 338.033 322.485 339.04 322.485H353.863C354.628 322.485 355.135 322.992 355.135 323.757L355.136 407.375ZM374.349 261.934C374.341 271.779 370.356 280.676 363.879 287.169C357.394 293.64 348.511 297.633 338.651 297.633H338.055V185.633H374.349V261.934ZM374.349 175.779H338.055V63.779H338.651C348.511 63.787 357.394 67.779 363.879 74.257C370.357 80.742 374.342 89.632 374.349 99.478V175.779Z" fill="white"/>
</svg>
