<svg width="24" height="24" viewBox="0 0 24 24" fill="none" xmlns="http://www.w3.org/2000/svg">
<path fill-rule="evenodd" clip-rule="evenodd" d="M11.9971 18.1357C9.83139 18.1357 7.63112 16.8501 6.347 15.1484C0.186234 15.1484 0 23.9495 0 23.9495H23.9927C23.9927 23.9495 24.4764 15.1094 17.5481 15.1094C16.2655 16.832 14.1629 18.1357 11.9971 18.1357Z" fill="#fff"/>
<path fill-rule="evenodd" clip-rule="evenodd" d="M17.1581 7.58479C17.1581 10.117 14.8467 14.9591 11.9931 14.9591C9.14397 14.9591 6.83105 10.1155 6.83105 7.58479C6.83105 5.0541 9.14247 2.99951 11.9931 2.99951C14.8467 3.00101 17.1581 5.0556 17.1581 7.58479Z" fill="#fff"/>
<path fill-rule="evenodd" clip-rule="evenodd" d="M19.4621 5.39944C19.4621 4.92484 18.8012 4.54186 17.9812 4.53885V3.56112C17.9812 3.41544 18.0368 0.00463867 12.0112 0.00463867C5.98857 0.00463867 6.04414 3.41544 6.04414 3.56112V4.5734C6.02913 4.5734 6.01711 4.56889 6.00359 4.56889C5.18807 4.56889 4.53174 4.94587 4.53174 5.41296V9.54917C4.53174 10.0133 5.18957 10.3917 6.00359 10.3917C6.81762 10.3917 7.47845 10.0133 7.47845 9.54917V5.41296C7.47845 5.34837 7.4379 5.2898 7.41387 5.22973V4.1018C7.41387 3.99817 6.98133 1.42393 12.0112 1.42393C17.0425 1.42393 16.5198 3.99817 16.5198 4.1018V5.2898C16.5108 5.32735 16.4823 5.36039 16.4823 5.39944V9.63027C16.4823 10.1064 17.1476 10.4924 17.9722 10.4924C17.9902 10.4924 18.0037 10.4864 18.0217 10.4864V12.0318H16.5439V13.4886H19.4771L19.4621 5.39944Z" fill="#fff"/>
</svg>
